# xmcd
#
# Track frame offsets:
#	150
#	13142
#	23872
#	35072
#	49452
#	61207
#	70972
#	83927
#	99365
#	110452
#	122080
#	135317
#	147532
#	159807
#	173002
#	186467
#
# Disc length: 2635
#
# Revision: 3
# Processed by: cddbd v1.5.1PL0 Copyright (c) Steve Scherf et al.
# Submitted via: EasyCDDAExtractor 5.0.2.1
# Normalized: r2:DSETVAR1
#
DISCID=df0a4910
DTITLE=Various Artist - All Time Blues Favourites [CD1]
DYEAR=1991
DGENRE=Blues
TTITLE0=Muddy Waters - Mannish Boy
TTITLE1=Little Junior - Mystery Train
TTITLE2=Eddie Taylor - Stroll Out West
TTITLE3=Otis Rush - So Many Roads, So Many Trains
TTITLE4=Albert King - Wild Woman
TTITLE5=Bo Diddley - Hey Bo Diddley
TTITLE6=Lee Dorsey - Ride Your Pony
TTITLE7=Carter Brothers - Booze In The Bottle
TTITLE8=Jimmy Reed - Good Lover
TTITLE9=Sammy Lewis - I Feel So Worried
TTITLE10=Howlin' Wolf - California Blues
TTITLE11=Elmore James - Got To Move
TTITLE12=Johnny Winter - Leave My Woman
TTITLE13=Walter Horton - Walter's Instrumental
TTITLE14=John Brim - You Got Me
TTITLE15=John Lee Hooker - This Is Hip
EXTD=
EXTT0=
EXTT1=
EXTT2=
EXTT3=
EXTT4=
EXTT5=
EXTT6=
EXTT7=
EXTT8=
EXTT9=
EXTT10=
EXTT11=
EXTT12=
EXTT13=
EXTT14=
EXTT15=
PLAYORDER=
